<?xml version="1.0" encoding="utf-8"?>
<!-- Generator: Adobe Illustrator 26.3.1, SVG Export Plug-In . SVG Version: 6.00 Build 0)  -->
<svg version="1.1" id="Layer_1" xmlns="http://www.w3.org/2000/svg" xmlns:xlink="http://www.w3.org/1999/xlink" x="0px" y="0px"
	 viewBox="0 0 500 500" style="enable-background:new 0 0 500 500;" xml:space="preserve">
<style type="text/css">
	.st0{fill:#CCCCCC;}
</style>
<path id="f95066d0494576a2cfe30c0bdf1c0d50" class="st0" d="M253.2,10c-14.1-0.2-28.2,0.9-42.2,3.1c-50.6,8.1-97.2,32.4-132.8,69.2
	C67,93.5,57,105.9,48.5,119.3c-50.9,78.9-51.3,180.2-1,259.5c34.3,53.8,88.5,91.9,150.8,105.8c11.2,2.3,22.5,4,33.8,5.2h0.3
	c15.7,0.5,31.3,0.1,47-1.2c109.3-13.9,195.4-100,209.3-209.3c1.8-19.5,1.8-39.1,0-58.6c-1.7-12.6-4.3-25.1-7.6-37.3
	C451.7,81.6,359.1,11.1,253.2,10L253.2,10z M262.4,20.1c17.7,1.1,35.3,4,52.4,8.8c4.2,1.2,10.2,3.3,15.2,5.1
	c2.3,0.8,4.3,1.6,5.8,2.2c-0.4,1.1-0.9,2.3-1.6,4.1c-1.8,4.4-4.3,10.4-7.2,16.9c-2.4,5.6-4.9,11.3-7.4,16.9l-1.1,2.4
	c-0.7-0.7-1.2-1.2-2.2-2.1c-4.9-4.8-9.8-9.7-14.7-14.6c-12.8-12.8-25.6-25.8-38.3-38.8L262.4,20.1z M237.4,20.2l-8.7,8.6
	c-8.8,8.7-22.7,22.4-31,30.5c-10.6,10.4-15.4,15.1-18.1,17.6l-1.8-4.2c-5.2-11.9-10.3-23.7-15.3-35.7c1.7-0.8,4.3-1.9,7.4-3
	c7.4-2.7,15-5,22.6-7C207.2,23.3,222.2,21,237.4,20.2L237.4,20.2z M250,21.7l31.2,31.5c8,8.1,16,16.1,23.9,24.3
	c2.7,2.8,4.8,4.9,6.4,6.7c-1.3,0.7-2.6,1.3-4.4,2.2c-5.5,2.7-13.1,6.4-21.4,10.3c-11.5,5.5-23,10.9-34.5,16.4l-2.4,1.1l-4.5-2.1
	c-13.6-6.5-27.2-13.1-40.8-19.7c-5.6-2.7-11.3-5.4-17-8.1c0,0,0,0,0.1-0.1c2.1-2.2,5-5.1,8.2-8.2c6.5-6.3,22.1-21.8,34.8-34.2
	L250,21.7L250,21.7z M345.3,40.3c0.2,0.1,0.4,0.1,0.6,0.2c2.4,1,6.7,3.2,13.2,6.6c17.1,9.3,33,20.6,47.3,33.6H369h-41.3l0.1-0.3
	c5.4-12.7,10.9-25.4,16.5-38C344.7,41.5,345,40.9,345.3,40.3L345.3,40.3z M153.3,40.9c0.1,0.2,0.1,0.2,0.2,0.4
	c0.9,2.1,5.4,12.5,10.1,23.4l6.2,14.2l0.7,1.6c-1.2,0-1.8,0.1-3.5,0.1c-6.8,0.1-18.4,0.2-36.7,0.1H93.9
	c10.8-9.9,22.6-18.9,35.1-26.6c7.7-4.6,15.5-8.9,23.6-12.9L153.3,40.9L153.3,40.9z M86.9,90.5h42.8c12.8,0,24.5,0.1,32.9,0.1
	c3.7,0,6.4,0.1,8.7,0.1c-0.8,2.6-1.9,6.2-3.1,10c-2.4,7.9-5.2,16.7-6,19.6c-2.5,8.2-5,16.3-7.6,24.4c-1,3.1-1.9,5.7-2.4,7.5
	c-0.3,0.8-0.5,1.3-0.6,1.8c-1,0.4-2,0.8-3,1.2c-3.8,1.4-10.9,3.9-24.3,8.6c-10.3,3.6-23.8,8.4-30.2,10.6c-2.6,0.9-4.8,1.7-6.8,2.4
	c0-2.3-0.1-5.1-0.1-8.8c-0.1-8.6-0.1-20.5-0.1-33.6L86.9,90.5L86.9,90.5z M368.8,90.5h43.1v16c0,11,0.2,32.1,0.5,47
	c0.1,8.1,0.2,14.8,0.2,19.5c0,1,0,1.5,0,2.4c-1.9-0.6-4.2-1.4-7.2-2.4c-6.8-2.3-15.7-5.3-24.5-8.3c-8.1-2.8-16.2-5.6-24.3-8.4
	c-3.3-1.2-6.1-2.2-8.1-2.9l-1.6-0.6c-0.1-0.2-0.1-0.2-0.2-0.4c-0.4-1.2-1-2.9-1.7-4.9c-1.4-4.1-3.2-9.7-5.1-15.8
	c-4.6-14.6-8.2-26-10.6-33.8c-1-3.3-1.7-5.4-2.3-7.4c2.3,0,5-0.1,8.7-0.1C344.1,90.5,355.8,90.5,368.8,90.5L368.8,90.5z M181,92.6
	c1.5,0.7,3.3,1.5,5.3,2.4c19.6,9.4,33.8,16.2,43.2,20.7c3.3,1.6,5.1,2.5,7.2,3.5l-39.6,16.2c-11,4.5-21.1,8.6-28.4,11.5l-5.3,2.1
	l0.6-2c1.7-5.3,4-12.6,6.4-20.6c5.4-17.4,8.3-26.9,9.9-32C180.7,93.6,180.7,93.3,181,92.6L181,92.6z M317.1,92.6l1.7,5.3
	c1.8,5.6,4.1,13.1,6.5,20.8c4.3,13.6,7.9,25.2,9.4,30.2l-36.1-14.4c-12.6-5-25.2-10.1-37.8-15.2c3.8-1.8,9.7-4.6,17-8.1
	c10.6-5.1,21.1-10.1,31.7-15.1C312.1,95,314.6,93.8,317.1,92.6L317.1,92.6z M421.6,96.5c9.9,11.1,18.7,23,26.5,35.7
	c2.2,3.7,5.4,9.6,8.2,15c2.6,5,4.6,9.4,5.3,11.3h-0.1c-1.2,0.5-2.8,1.1-4.7,1.9c-3.8,1.6-8.8,3.7-14.2,5.9
	c-6.8,2.9-13.7,5.7-20.5,8.6v-14.7c0-11.2-0.2-32.4-0.4-47.2L421.6,96.5L421.6,96.5z M77.2,98v33l0,0v3.8c0,13.8,0,27.5-0.1,41.3
	l-0.4-0.2l-13.6-6.2c-7.9-3.6-15.8-7.2-23.6-10.7l-1-0.4c4-9,8.5-17.8,13.5-26.3C59.4,120.2,67.8,108.7,77.2,98L77.2,98z
	 M248.5,125.1l0.3,0.1l2.8,1.1c2.4,0.9,5.9,2.3,10.2,4c8.5,3.3,20.1,7.9,32.7,13l44.4,17.8l16.6,40.9c9.5,23.3,17.9,43.9,18.5,45.5
	l0.6,1.6l-2,4.7c-1.5,3.4-10.1,23.7-19.2,45.2l-16,37.7l-35.2,14.7c-15.4,6.4-30.8,12.8-46.2,19.2l-8.1,3.3l-21.6-8.8
	c-29.4-12-46.5-19-56.4-23.1c-5-2.1-8.1-3.4-10-4.2c-0.8-0.3-1.2-0.6-1.6-0.7c-0.7-1.6-1.5-3.2-2.2-4.7c-1.5-3.5-3.6-8.2-5.7-13.4
	c-4.3-10.3-12.7-30.2-18.6-44.3c-2.5-6.1-5.1-12.1-7.6-18.2c-0.8-1.9-1.5-3.8-2.3-5.6l-0.3-0.8l1-2.4c1-2.4,2.4-5.8,4.2-9.9
	c3.5-8.3,8.4-19.7,13.7-32.1l18.8-43.8l5.6-2.3c17.8-7.3,62.8-25.6,69-28.2c6.8-2.8,10.7-4.4,13-5.3
	C248.8,125.1,249,125.2,248.5,125.1L248.5,125.1z M351.5,165.6l3.6,1.2c6.5,2.1,15.3,5,24,7.9c8.7,2.9,17.5,5.8,24,8
	c2.9,1,5.1,1.7,7,2.4l-0.4,0.8c-6.8,12.4-13.7,24.8-20.7,37.2c-2.5,4.3-4.9,8.7-7.3,13.2c-0.3,0.6-0.6,1-0.9,1.6l-0.1-0.3
	c-1.8-4.3-4.3-10.3-7-16.9l-17.5-43C354.3,172.9,352.7,168.9,351.5,165.6L351.5,165.6z M146.4,166.4c-0.4,0.9-0.5,1.2-1,2.4
	c-3.3,7.9-9.2,21.7-19.6,45.7c-3.6,8.3-6.9,15.9-9.3,21.4l-0.9,2c-0.3-0.6-0.4-0.8-0.8-1.4c-4.8-9.1-9.5-18.2-14.2-27.4
	c-3.3-6.5-6.7-12.9-10-19.3c-0.7-1.3-1.2-2.3-1.7-3.4c1.9-0.7,4.2-1.5,7.1-2.6c6.5-2.3,15-5.3,23.6-8.3s17.1-5.9,23.5-8.2
	L146.4,166.4L146.4,166.4z M465.4,167.5c0.7,2,1.6,4.7,3.1,9.2c6.7,19.6,10.6,40,11.7,60.7l-3-2.9c-7.6-7.5-15.2-15-22.8-22.5
	l-28.2-28c2.2-1,5.4-2.3,9.1-3.9l20.4-8.6c3.3-1.4,6.5-2.7,8.8-3.6L465.4,167.5z M34.8,167.8c1.2,0.5,2.3,1,4,1.7
	c4.3,1.9,10.1,4.5,15.8,7c5.7,2.6,11.5,5.2,15.9,7.2l2.8,1.3c-1,1-1.7,1.8-3.5,3.6c-11.3,11.2-22.6,22.4-34,33.5
	c-5.2,5.2-10.5,10.3-15.8,15.4c0.8-14,2.8-28,6-41.7c1.1-4.4,3.5-12.4,5.7-19.2c1.1-3.4,2.2-6.5,3-8.7L34.8,167.8L34.8,167.8z
	 M418.5,190.6c1.6,1.6,3.8,3.7,6.5,6.3c6,5.9,14.3,14,23.3,23l30.1,29.8l-30.1,29.5c-7.7,7.6-15.5,15.2-23.3,22.7
	c-2.7,2.6-4.8,4.6-6.5,6.2c-0.9-1.6-1.9-3.4-3.3-5.7c-4.1-7.3-8.2-14.5-12.2-21.8c-4-7.3-8.1-14.6-12.2-22.1c-1.7-3-3.1-5.6-4.1-7.5
	c-0.4-0.7-0.7-1.3-0.9-1.7v-0.1c0.4-1,1.2-2.6,2.4-4.8c2.4-4.5,6.4-11.7,12.6-22.7c3.8-6.8,9.8-17.4,13.3-23.6
	C416,195.1,417.4,192.6,418.5,190.6L418.5,190.6z M80.7,192l0.3,0.6c1.6,2.9,3.7,6.9,6,11.3c4.6,8.9,11.9,23.2,16.4,31.9l7.2,13.9
	l-15.2,30.1c-4.4,8.7-8.5,16.7-11.5,22.4c-1.1,2.1-1.9,3.6-2.6,5l-2-1.9c-4.7-4.4-9.3-8.9-13.9-13.3c-12.9-12.5-25.8-25-38.6-37.6
	l-4.9-4.8l9.7-9.5c20.5-20.2,33.6-33,41.6-40.8C76.7,195.9,79,193.7,80.7,192L80.7,192z M380.6,260.4l2.4,4.3c4,7.2,8,14.4,12,21.6
	c4,7.2,7.9,14.4,11.9,21.5c1.3,2.4,2.3,4.2,3.2,5.8c-17.5,5.7-35,11.4-52.5,17.1l0,0l-0.6,0.2c-2.9,0.9-5.2,1.7-7.5,2.4l1.9-4.4
	l9.4-22.2c7.2-16.9,15.3-36,19.5-45.8C380.4,260.7,380.5,260.6,380.6,260.4L380.6,260.4z M20,261.6l6.3,6.2
	c16,15.6,32.8,31.9,42.7,41.5c2.1,2.1,3.9,3.9,5.4,5.4c-1.5,0.8-3,1.7-6.5,3.5c-7.7,4.1-9.4,5.1-24.3,13.2c-2.9,1.6-5.5,3-7.5,4.1
	c-0.6-1.4-1.2-2.9-1.7-4.4c-2-5.6-3.9-11.2-5.6-16.9C24,297.1,21,279.4,20,261.6L20,261.6z M115.7,261.7c1.1,2.5,2.2,5.2,3.7,8.7
	c4,9.4,9.1,21.6,14,33.2c1.9,4.5,6,14.3,9.1,21.7c1.2,2.8,2.1,5,3,7.2c-3.6-1.3-18.4-6.5-33-11.6c-6.3-2.2-12.5-4.4-18.8-6.6l-4-1.4
	c0.7-1.5,1.5-3.1,2.7-5.4c2.8-5.7,6.7-13.5,11.1-22c3.7-7.3,7.4-14.6,11.2-21.9C115.2,262.9,115.4,262.4,115.7,261.7L115.7,261.7z
	 M480.1,262c-1.2,23.2-6,46.2-14.1,68c-0.7,2-1.4,3.6-2,5c-0.8-0.4-1.7-0.8-2.7-1.4c-7.5-4-15.1-7.9-22.7-11.8
	c-4-2.1-8.1-4.2-12.1-6.3l-0.7-0.4l0.5-0.6c2.4-2.4,5.8-5.8,9.4-9.4C460.7,280.9,475.4,266.5,480.1,262L480.1,262z M87.8,322.9
	l5.5,1.9c6.2,2.1,14.6,5,23,8c8.4,2.9,16.8,5.9,23.3,8.2c3.5,1.2,6.9,2.5,10.4,3.7c0.2,0.1,0.1,0.1,0.3,0.1c0.7,1.4,1.2,2.9,1.7,4.4
	c1.6,4.7,4.4,13.3,9.2,28.7c3.1,10,6.3,20.1,9.3,30.2c-2.3,0.1-4.9,0.1-8.6,0.1c-8.4,0.1-19.9,0.1-32.6,0.1H86.9l0.4-43.3
	C87.5,351,87.7,336.9,87.8,322.9L87.8,322.9z M412.3,323.5c0,2.4,0.1,5.2,0.1,9c0.1,8.6,0.2,20.5,0.4,33.6l0.4,43.6h-44.1
	c-13.2,0-25.2-0.1-33.9-0.1c-3.9,0-6.8-0.1-9.2-0.1l0.1-0.4c0.8-3,2-7,3.3-11.4c2.6-8.8,7.2-24.6,10.3-35.1l5-17.2l35.1-11.4
	c10.2-3.3,19.5-6.3,26.2-8.4C408.8,324.6,410.6,324,412.3,323.5L412.3,323.5z M77.9,324l-0.4,40.3c-0.1,12.5-0.3,25-0.4,37.5
	c-2.5-2.9-5-5.8-7.4-8.7c-6.3-7.9-12-16.3-17.2-25c-2-3.3-5.4-9.7-8.3-15.3c-1.3-2.4-2.5-4.9-3.7-7.3c-0.2-0.3-0.2-0.5-0.4-0.8
	c0.8-0.5,1.6-1,3.5-2.1c5.3-3,15.2-8.3,33.3-18.1L77.9,324L77.9,324z M422.1,324.4l2,1.1c4.3,2.3,14.8,7.7,23.4,12.1l11.1,5.7
	l1.6,0.8c-0.5,1-0.9,2.1-1.6,3.4c-1.8,3.8-4.3,8.6-6.4,12.4c-6.4,11.3-13.5,22.1-21.4,32.4c-2.6,3.2-5.3,6.4-8,9.5v-10.2
	c-0.1-15.7-0.2-31.3-0.5-47L422.1,324.4L422.1,324.4z M333.6,349c-3.4,11.4-13,44.4-15.3,52.1c-0.8,2.6-1.4,4.7-2,6.5
	c-1.9-0.9-4.2-2-7.1-3.5c-7.7-3.8-15.4-7.6-23.1-11.5c-7.7-3.8-15.3-7.7-22.9-11.5l-3.1-1.6l2.5-1.1c6-2.5,14.1-5.9,23-9.6
	c6.6-2.7,13.2-5.4,19.7-8.2l21.9-9.2C330.3,350.2,331.7,349.7,333.6,349z M162.7,349.8c4.1,1.6,9.5,3.7,15.5,6.1
	c12.5,5,26.9,10.9,34.6,14.2c1.9,0.8,9.2,3.8,16.7,6.9l6.4,2.6c-3.8,1.8-10.8,5.2-16.8,8.1c-6.1,3-12.2,5.9-18.3,8.8l-15.5,7.4
	c-1.9,0.9-3.5,1.6-4.9,2.3l-1.8-5.7c-1.9-6.1-4.5-14.4-7.4-23.6c-2.9-9.2-5.5-17.7-7.4-23.9L162.7,349.8L162.7,349.8z M248.1,385
	c3.4,1.6,6.7,3.2,10,4.8c6.5,3.2,15,7.3,23.5,11.5c8.5,4.2,16.9,8.4,23.2,11.6c2.5,1.3,4.4,2.2,6.1,3.1c-0.8,0.9-1.5,1.6-2.6,2.7
	c-3.7,3.8-8.7,9-14.3,14.7l-33.5,34.1L250,478.3l-32.5-32.1c-8.3-8.2-16.6-16.5-24.8-24.7c-2.9-2.9-5.1-5.1-6.8-6.9l1.7-0.9
	c3.8-1.9,9.1-4.5,15-7.3l33.8-16.2c3.4-1.6,6.6-3.1,9-4.1C246.5,385.7,247.5,385.3,248.1,385L248.1,385z M129.6,418.1
	c18.3,0,29.8,0,36.7,0.1c1.8,0,2.4,0.1,3.6,0.1c-3.9,9.4-16,38.7-16.8,40.6c-1.2-0.5-2.5-1.1-3.7-1.7
	c-20.7-10.1-39.8-23.3-56.5-39.1L129.6,418.1L129.6,418.1z M327,419.4h78.8c-16.7,15.4-35.6,28.3-56.1,38.3h-0.1
	c-1.5,0.7-2.9,1.4-4.1,1.9l-1.2-2.5c-1.7-3.5-3.9-8.3-6.3-13.5C333.8,434.5,329.7,425.4,327,419.4L327,419.4z M178.8,422.3
	c1.7,1.6,3.8,3.6,6.5,6.2c8.3,8,16.4,16,24.6,24.1l6.5,6.4l21.1,20.8c-2.6-0.1-3.9-0.1-11.3-0.8c-15.1-1.6-30-4.6-44.5-9
	c-4.5-1.5-9-3-13.5-4.7c-2.3-0.8-4.3-1.6-5.9-2.2c0.4-1.2,0.9-2.4,1.6-4.2c1.7-4.5,4.1-10.5,6.5-16.6c2.4-6,4.9-12.1,6.9-16.7
	C178,424.3,178.4,423.4,178.8,422.3L178.8,422.3z M318,423.3c1.2,2.7,5.1,11.5,9.2,20.4c4.1,9.1,8.2,17.9,9.1,20l-4.5,1.7
	c-21,8-43,12.9-65.4,14.4c-1.9,0.1-2.4,0.1-4.2,0.3c10.6-11,21.3-21.9,32-32.7c7.1-7.2,13.9-14.1,19-19.2
	C315.3,426.1,316.7,424.7,318,423.3L318,423.3z"/>
</svg>
