<?xml version="1.0" encoding="utf-8"?>
<!-- Generator: Adobe Illustrator 26.3.1, SVG Export Plug-In . SVG Version: 6.00 Build 0)  -->
<svg version="1.1" id="Layer_1" xmlns="http://www.w3.org/2000/svg" xmlns:xlink="http://www.w3.org/1999/xlink" x="0px" y="0px"
	 viewBox="0 0 500 500" style="enable-background:new 0 0 500 500;" xml:space="preserve">
<style type="text/css">
	.st0{fill:#CCCCCC;}
</style>
<g>
	<path id="Path_100" class="st0" d="M490,173.3l-105-100H117.2l-1.1,1L10,175.2l244.4,251.5L490,173.3z M479.3,173.6l-225.1,242
		L20.8,175.4l99.5-94.5H382C382,80.9,479.3,173.6,479.3,173.6z"/>
	<path id="Path_101" class="st0" d="M484.7,178.3v-7.5l-467.1,1.5v7.5L484.7,178.3z"/>
	<path id="Path_102" class="st0" d="M387.7,81l-6.3-4.1L319.5,173l6.3,4.1L387.7,81z"/>
	<path id="Path_103" class="st0" d="M328.7,172.8l-71.5-95.4l-6,4.5l71.5,95.4L328.7,172.8z"/>
	<path id="Path_104" class="st0" d="M257.9,81.2l-6-4.5l-71.5,94.6l6,4.5L257.9,81.2z"/>
	<path id="Path_105" class="st0" d="M184.6,173.8l-63.3-99.1l-6.3,4.1l63.3,99.1L184.6,173.8z M256.7,81.2h-7.5v93.9h7.5V81.2z"/>
	<path id="Path_106" class="st0" d="M257.6,176.1H250V422h7.5V176.1z"/>
	<path id="Path_107" class="st0" d="M327.8,177.9l-7.2-2.1l-68.5,241.4l7.2,2.1L327.8,177.9z"/>
	<path id="Path_108" class="st0" d="M255.9,417.9l-71-243.7l-7.3,2.1l71,243.7C248.6,420,255.9,417.9,255.9,417.9z M121.4,80.5
		l-7.4-2l-26.2,95.3l7.4,2L121.4,80.5z M416.7,172.2l-28.6-96l-7.3,2.2l28.6,96L416.7,172.2z"/>
	<path id="Path_109" class="st0" d="M416,177.4l-6.3-4.1L252.5,416.2l6.3,4.1L416,177.4z"/>
	<path id="Path_110" class="st0" d="M256.5,418.4L94.1,174l-6.3,4.2l162.4,244.4L256.5,418.4z"/>
</g>
</svg>
