<?xml version="1.0" encoding="utf-8"?>
<!-- Generator: Adobe Illustrator 26.3.1, SVG Export Plug-In . SVG Version: 6.00 Build 0)  -->
<svg version="1.1" id="Layer_1" xmlns="http://www.w3.org/2000/svg" xmlns:xlink="http://www.w3.org/1999/xlink" x="0px" y="0px"
	 viewBox="0 0 500 500" style="enable-background:new 0 0 500 500;" xml:space="preserve">
<style type="text/css">
	.st0{fill:#CCCCCC;}
	.st1{fill:#FFFFFF;}
	.st2{fill:none;stroke:#CCCCCC;stroke-width:12.2232;}
	.st3{clip-path:url(#SVGID_00000050640142730170499220000005238335164397151913_);}
</style>
<g>
	<path id="f95066d0494576a2cfe30c0bdf1c0d50" class="st0" d="M145.8,115.1c-7.9-0.1-15.8,0.5-23.6,1.7C94,121.4,68,134.9,48.1,155.5
		c-6.3,6.2-11.9,13.2-16.6,20.6C3,220.2,2.8,276.8,30.9,321c19.1,30.1,49.4,51.3,84.2,59.1c6.2,1.3,12.6,2.3,18.9,2.9h0.2
		c8.7,0.3,17.5,0.1,26.2-0.7c61.1-7.7,109.1-55.8,116.9-116.9c1-10.9,1-21.8,0-32.7c-1-7-2.4-14-4.3-20.8
		C256.7,155,204.9,115.7,145.8,115.1L145.8,115.1z M151,120.7c9.9,0.6,19.7,2.2,29.3,4.9c2.4,0.7,5.7,1.8,8.5,2.8
		c1.3,0.5,2.4,0.9,3.3,1.2c-0.2,0.6-0.5,1.3-0.9,2.3c-1,2.4-2.4,5.8-4,9.5c-1.4,3.1-2.7,6.3-4.1,9.4l-0.6,1.4
		c-0.4-0.4-0.7-0.7-1.2-1.2c-2.8-2.7-5.5-5.4-8.2-8.1c-7.2-7.2-14.3-14.4-21.4-21.7L151,120.7z M137,120.7l-4.9,4.8l-17.3,17
		c-5.9,5.8-8.6,8.4-10.1,9.8l-1-2.4c-2.9-6.6-5.7-13.3-8.6-19.9c0.9-0.5,2.4-1.1,4.1-1.7c4.2-1.5,8.4-2.8,12.6-3.9
		C120.1,122.5,128.5,121.2,137,120.7L137,120.7z M144,121.6l17.4,17.6c4.5,4.5,8.9,9,13.3,13.6c1.5,1.6,2.7,2.8,3.6,3.7l-2.4,1.2
		c-3.1,1.5-7.3,3.6-12,5.8c-6.4,3.1-12.8,6.1-19.3,9.2l-1.4,0.6l-2.5-1.2c-7.6-3.6-15.2-7.3-22.8-11c-3.1-1.5-6.3-3-9.5-4.5l0,0
		c1.2-1.2,2.8-2.8,4.6-4.6c3.6-3.5,12.4-12.1,19.5-19.1L144,121.6L144,121.6z M197.2,132c0.1,0,0.2,0.1,0.3,0.1
		c1.4,0.6,3.8,1.8,7.3,3.7c9.5,5.2,18.4,11.5,26.4,18.8h-20.9h-23.1l0.1-0.2c3-7.1,6.1-14.2,9.2-21.2
		C196.9,132.7,197,132.3,197.2,132L197.2,132z M90,132.3c0,0.1,0.1,0.1,0.1,0.2c0.5,1.2,3,7,5.6,13.1l3.4,7.9l0.4,0.9
		c-0.6,0-1,0.1-2,0.1c-3.8,0.1-10.3,0.1-20.5,0.1H56.8c6-5.5,12.6-10.5,19.6-14.9c4.3-2.6,8.7-5,13.2-7.2L90,132.3L90,132.3z
		 M52.9,160h23.9c7.2,0,13.7,0,18.3,0.1c2,0,3.6,0,4.8,0.1c-0.4,1.5-1.1,3.4-1.7,5.6c-1.4,4.4-2.9,9.3-3.4,10.9
		c-1.4,4.6-2.8,9.1-4.3,13.6c-0.6,1.8-1,3.2-1.4,4.2c-0.1,0.4-0.3,0.7-0.4,1c-0.6,0.2-1.1,0.5-1.7,0.7c-2.1,0.8-6.1,2.2-13.6,4.8
		c-5.8,2-13.3,4.7-16.8,5.9l-3.8,1.3c0-1.3,0-2.8,0-4.9c0-4.8,0-11.5,0-18.8L52.9,160L52.9,160z M210.3,160h24.1v9
		c0,6.1,0.1,17.9,0.3,26.3c0.1,4.5,0.1,8.3,0.1,10.9c0,0.6,0,0.9,0,1.3l-4-1.3c-3.8-1.3-8.8-2.9-13.7-4.6c-4.5-1.5-9.1-3.1-13.6-4.7
		c-1.8-0.7-3.4-1.2-4.5-1.6l-0.9-0.3c0-0.1-0.1-0.1-0.1-0.2c-0.2-0.7-0.6-1.6-1-2.8c-0.8-2.3-1.8-5.4-2.9-8.8
		c-2.6-8.1-4.5-14.5-5.9-18.9c-0.6-1.8-0.9-3.1-1.3-4.1l4.9,0C196.6,160,203.2,160,210.3,160L210.3,160z M105.5,161.2
		c0.9,0.4,1.8,0.8,3,1.4c11,5.2,18.9,9,24.1,11.6l4,2l-22.1,9.1c-6.1,2.5-11.8,4.8-15.9,6.4l-2.9,1.2l0.4-1.1
		c0.9-3,2.2-7.1,3.6-11.5c3-9.7,4.7-15,5.5-17.8C105.3,161.7,105.3,161.6,105.5,161.2L105.5,161.2z M181.5,161.2l0.9,3
		c1,3.1,2.3,7.3,3.7,11.6c2.4,7.6,4.4,14.1,5.3,16.8l-20.2-8.1c-7-2.8-14.1-5.6-21.1-8.5c2.1-1,5.4-2.6,9.5-4.5
		c5.9-2.8,11.8-5.6,17.7-8.4C178.7,162.5,180.1,161.9,181.5,161.2L181.5,161.2z M239.9,163.4c5.5,6.2,10.5,12.8,14.8,19.9
		c1.2,2.1,3,5.4,4.6,8.4c1.4,2.8,2.6,5.2,3,6.3l0,0l-2.6,1.1c-2.1,0.9-4.9,2-7.9,3.3c-3.8,1.6-7.6,3.2-11.5,4.8V199
		c0-6.3-0.1-18.1-0.2-26.4L239.9,163.4L239.9,163.4z M47.5,164.2v18.4l0,0v2.1c0,7.7,0,15.4,0,23l-0.2-0.1l-7.6-3.4
		c-4.4-2-8.8-4-13.2-6l-0.6-0.2c2.3-5,4.8-9.9,7.5-14.7C37.5,176.6,42.3,170.2,47.5,164.2L47.5,164.2z M143.2,179.3l0.2,0.1l1.6,0.6
		c1.4,0.5,3.3,1.3,5.7,2.2c4.7,1.9,11.2,4.4,18.2,7.3l24.8,9.9l9.3,22.9c5.3,13,10,24.5,10.3,25.4l0.4,0.9l-1.1,2.6
		c-0.8,1.9-5.6,13.3-10.7,25.3l-8.9,21l-19.7,8.2c-8.6,3.6-17.2,7.2-25.8,10.7l-4.5,1.9l-12.1-4.9c-16.4-6.7-26-10.6-31.5-12.9
		c-2.8-1.1-4.5-1.9-5.6-2.4c-0.4-0.2-0.7-0.3-0.9-0.4c-0.4-0.9-0.8-1.8-1.2-2.7c-0.9-2-2-4.6-3.2-7.5c-2.4-5.8-7.1-16.9-10.4-24.7
		c-1.4-3.4-2.8-6.8-4.2-10.2c-0.4-1.1-0.9-2.1-1.3-3.2l-0.2-0.5l0.6-1.3c0.6-1.3,1.3-3.2,2.3-5.5c2-4.6,4.7-11,7.7-17.9l10.5-24.4
		l3.1-1.3c10-4.1,35.1-14.3,38.5-15.8c3.8-1.6,6-2.4,7.2-2.9S143.4,179.4,143.2,179.3L143.2,179.3z M200.7,202l2,0.7
		c3.7,1.2,8.5,2.8,13.4,4.4s9.8,3.2,13.4,4.5c1.6,0.5,2.8,1,3.9,1.3l-0.2,0.4c-3.8,7-7.7,13.9-11.6,20.8c-1.4,2.4-2.7,4.9-4.1,7.3
		c-0.2,0.3-0.3,0.6-0.5,0.9l-0.1-0.1c-1-2.4-2.4-5.8-3.9-9.4l-9.8-24C202.3,206.1,201.4,203.8,200.7,202L200.7,202z M86.2,202.4
		c-0.2,0.5-0.3,0.7-0.5,1.3c-1.8,4.4-5.2,12.1-10.9,25.5c-2,4.7-3.8,8.9-5.2,12l-0.5,1.1c-0.2-0.3-0.2-0.4-0.4-0.8
		c-2.7-5.1-5.3-10.2-7.9-15.3c-1.8-3.6-3.7-7.2-5.6-10.8c-0.4-0.7-0.7-1.3-1-1.9c1-0.4,2.3-0.8,4-1.4c3.6-1.3,8.4-3,13.2-4.6
		s9.6-3.3,13.1-4.5L86.2,202.4L86.2,202.4z M264.3,203.1c0.4,1.1,0.9,2.6,1.7,5.1c3.7,10.9,5.9,22.4,6.5,33.9l-1.6-1.6
		c-4.3-4.2-8.5-8.4-12.8-12.6l-15.8-15.6c1.2-0.5,3.1-1.3,5.1-2.2l11.4-4.8c1.8-0.8,3.6-1.5,4.9-2L264.3,203.1z M23.8,203.2l2.2,1
		c2.4,1.1,5.6,2.5,8.8,3.9s6.4,2.9,8.9,4l1.6,0.7c-0.6,0.6-1,1-2,2c-6.3,6.3-12.6,12.5-19,18.7c-2.9,2.9-5.9,5.7-8.8,8.6
		c0.5-7.8,1.6-15.6,3.3-23.3c0.6-2.4,1.9-6.9,3.2-10.7C22.7,206.2,23.3,204.5,23.8,203.2L23.8,203.2z M238.1,216
		c0.9,0.9,2.1,2,3.7,3.5c3.4,3.3,7.9,7.8,13,12.8l16.8,16.6l-16.8,16.5c-4.3,4.2-8.7,8.5-13,12.7c-1.5,1.5-2.7,2.6-3.6,3.5
		c-0.5-0.9-1.1-1.9-1.8-3.2c-2.3-4-4.6-8.1-6.8-12.2c-2.3-4.1-4.5-8.2-6.8-12.3c-0.9-1.7-1.7-3.1-2.3-4.2c-0.2-0.4-0.4-0.7-0.5-1v0
		c0.2-0.5,0.7-1.4,1.4-2.7c1.3-2.5,3.6-6.5,7.1-12.7c2.1-3.8,5.5-9.7,7.5-13.2C236.7,218.4,237.5,217.1,238.1,216L238.1,216z
		 M49.5,216.8l0.2,0.3c0.9,1.6,2.1,3.9,3.3,6.3c2.5,5,6.7,13,9.2,17.8l4,7.8l-8.5,16.8c-2.4,4.9-4.7,9.3-6.4,12.5
		c-0.6,1.2-1.1,2-1.5,2.8l-1.1-1.1c-2.6-2.5-5.2-5-7.8-7.5c-7.2-7-14.4-14-21.6-21l-2.7-2.7l5.4-5.3c11.5-11.3,18.8-18.4,23.2-22.8
		C47.3,218.9,48.5,217.7,49.5,216.8z M216.9,254.9l1.4,2.4c2.2,4,4.5,8,6.7,12.1c2.2,4,4.4,8,6.6,12c0.7,1.3,1.3,2.3,1.8,3.2
		c-9.8,3.2-19.5,6.3-29.3,9.6l0,0l-0.3,0.1c-1.6,0.5-2.9,0.9-4.2,1.4l1-2.4l5.3-12.4c4-9.4,8.6-20.1,10.9-25.6
		C216.9,255.1,216.9,255.1,216.9,254.9L216.9,254.9z M15.6,255.6l3.5,3.4c8.9,8.7,18.3,17.8,23.8,23.2c1.2,1.1,2.2,2.2,3,3
		c-0.9,0.5-1.7,0.9-3.6,2c-4.3,2.3-5.3,2.8-13.6,7.4c-1.6,0.9-3.1,1.7-4.2,2.3c-0.3-0.8-0.7-1.6-1-2.4c-1.1-3.1-2.2-6.3-3.1-9.4
		C17.8,275.4,16.1,265.6,15.6,255.6L15.6,255.6z M69,255.7c0.6,1.4,1.2,2.9,2.1,4.9c2.2,5.2,5.1,12.1,7.8,18.5
		c1.1,2.5,3.3,7.9,5.1,12.1c0.7,1.6,1.2,2.8,1.7,4c-2-0.7-10.3-3.6-18.4-6.5c-3.5-1.2-7-2.4-10.5-3.7l-2.2-0.8
		c0.4-0.8,0.9-1.8,1.5-3.1c1.6-3.2,3.8-7.5,6.2-12.3c2.1-4.1,4.2-8.1,6.3-12.2C68.7,256.3,68.8,256.1,69,255.7L69,255.7z
		 M272.6,255.8c-0.7,13-3.3,25.8-7.8,38c-0.4,1.1-0.8,2-1.1,2.8c-0.5-0.2-0.9-0.5-1.5-0.8c-4.2-2.2-8.4-4.4-12.7-6.6
		c-2.3-1.2-4.5-2.3-6.7-3.5l-0.4-0.2l0.3-0.3c1.3-1.4,3.2-3.2,5.3-5.2C261.7,266.3,270,258.3,272.6,255.8L272.6,255.8z M53.5,289.8
		l3.1,1c3.5,1.2,8.1,2.8,12.8,4.4s9.4,3.3,13,4.6c1.9,0.7,3.9,1.4,5.8,2.1c0.1,0,0.1,0,0.2,0.1c0.4,0.8,0.7,1.6,1,2.4
		c0.9,2.6,2.4,7.4,5.2,16.1c1.8,5.6,3.5,11.2,5.2,16.8c-1.3,0-2.8,0.1-4.8,0.1c-4.7,0.1-11.1,0.1-18.2,0.1H52.9l0.2-24.2
		C53.2,305.5,53.3,297.7,53.5,289.8L53.5,289.8z M234.7,290.1c0,1.3,0,2.9,0.1,5c0.1,4.8,0.1,11.5,0.2,18.8l0.2,24.4h-24.6
		c-7.4,0-14.1,0-18.9-0.1c-2.2,0-3.8,0-5.1-0.1l0.1-0.2c0.5-1.7,1.1-3.9,1.8-6.4c1.5-4.9,4-13.8,5.8-19.6l2.8-9.6l19.6-6.4
		c5.7-1.8,10.9-3.5,14.7-4.7L234.7,290.1L234.7,290.1z M47.9,290.5L47.7,313c-0.1,7-0.2,14-0.2,20.9c-1.4-1.6-2.8-3.2-4.1-4.9
		c-3.5-4.4-6.7-9.1-9.6-13.9c-1.1-1.8-3.1-5.4-4.6-8.6c-0.7-1.4-1.4-2.7-2-4.1c-0.1-0.2-0.1-0.3-0.2-0.4c0.5-0.3,0.9-0.6,1.9-1.1
		c3-1.7,8.5-4.7,18.6-10.1L47.9,290.5L47.9,290.5z M240.2,290.6l1.1,0.6c2.4,1.3,8.3,4.3,13.1,6.8l6.2,3.2l0.9,0.5
		c-0.3,0.6-0.5,1.1-0.9,1.9c-1,2.1-2.4,4.8-3.5,6.9c-3.6,6.3-7.6,12.4-12,18.1c-1.4,1.8-2.9,3.6-4.5,5.3v-5.7
		c0-8.7-0.1-17.5-0.3-26.2L240.2,290.6L240.2,290.6z M190.7,304.4c-1.9,6.3-7.3,24.8-8.6,29.1c-0.4,1.4-0.8,2.6-1.1,3.6
		c-1-0.5-2.3-1.1-4-1.9c-4.3-2.1-8.6-4.3-12.9-6.4c-4.3-2.1-8.6-4.3-12.8-6.4l-1.8-0.9l1.4-0.6c3.3-1.4,7.9-3.3,12.8-5.4l11-4.6
		l12.3-5.1C188.9,305.1,189.7,304.8,190.7,304.4L190.7,304.4z M95.3,304.9c2.3,0.9,5.3,2.1,8.7,3.4c7,2.8,15,6.1,19.3,7.9
		c1,0.5,5.2,2.1,9.4,3.8l3.6,1.5c-2.2,1-6.1,2.9-9.4,4.5c-3.3,1.6-6.8,3.3-10.2,4.9l-8.7,4.1l-2.8,1.3l-1-3.2
		c-1.1-3.4-2.5-8.1-4.1-13.2c-1.6-5.1-3.1-9.9-4.2-13.4L95.3,304.9L95.3,304.9z M143,324.5c1.9,0.9,3.7,1.8,5.6,2.7
		c3.6,1.8,8.4,4.1,13.1,6.4s9.4,4.7,12.9,6.5c1.4,0.7,2.4,1.2,3.4,1.7l-1.4,1.5c-2,2.1-4.9,5-7.9,8.2L150,370.6l-5.9,6l-18.1-17.9
		c-4.6-4.6-9.3-9.2-13.9-13.8c-1.6-1.6-2.8-2.8-3.8-3.8l1-0.5c2.1-1.1,5.1-2.5,8.4-4.1l18.9-9.1c1.9-0.9,3.7-1.7,5-2.3
		C142.1,324.9,142.6,324.6,143,324.5L143,324.5z M76.8,343c10.2,0,16.7,0,20.5,0.1c1,0,1.4,0,2,0.1c-2.2,5.3-8.9,21.6-9.4,22.7
		c-0.7-0.3-1.4-0.6-2.1-1c-11.6-5.7-22.2-13-31.6-21.9L76.8,343L76.8,343z M187.1,343.7h44c-9.3,8.6-19.9,15.8-31.3,21.4h0
		c-0.9,0.4-1.6,0.8-2.3,1.1l-0.7-1.4c-0.9-2-2.2-4.7-3.5-7.6C190.9,352.1,188.6,347,187.1,343.7L187.1,343.7z M104.3,345.4
		c1,0.9,2.1,2,3.7,3.5c4.6,4.4,9.2,8.9,13.7,13.4l3.6,3.6l11.8,11.7c-1.4-0.1-2.2-0.1-6.3-0.5c-8.4-0.9-16.7-2.6-24.8-5
		c-2.5-0.8-5.1-1.7-7.6-2.6c-1.3-0.5-2.4-0.9-3.3-1.2c0.2-0.7,0.5-1.4,0.9-2.4c1-2.5,2.3-5.9,3.7-9.3c1.4-3.4,2.8-6.8,3.8-9.3
		C103.9,346.5,104.1,346,104.3,345.4L104.3,345.4z M182.1,345.9c0.7,1.5,2.9,6.4,5.1,11.4c2.3,5,4.5,10,5.1,11.2l-2.5,1
		c-11.7,4.5-24,7.2-36.5,8.1c-1,0.1-1.4,0.1-2.3,0.1c5.9-6.1,11.9-12.2,17.9-18.3c4-4,7.8-7.9,10.6-10.8L182.1,345.9L182.1,345.9z"
		/>
	<g id="Group_59" transform="translate(19.666 0)">
		<g id="Ellipse_2" transform="translate(0 0)">
			<circle class="st1" cx="290.4" cy="250" r="179.9"/>
			<circle class="st2" cx="290.4" cy="250" r="173.8"/>
		</g>
		<g>
			<defs>
				<circle id="SVGID_1_" cx="290.4" cy="250" r="179.9"/>
			</defs>
			<clipPath id="SVGID_00000098907645091006040890000005394217731222369419_">
				<use xlink:href="#SVGID_1_"  style="overflow:visible;"/>
			</clipPath>
			<g id="Mask_Group_4" style="clip-path:url(#SVGID_00000098907645091006040890000005394217731222369419_);">
				<path id="f95066d0494576a2cfe30c0bdf1c0d50-2" class="st0" d="M33.2-58.2c-18.1-0.2-36.2,1.1-54.1,4
					C-85.7-43.8-145.4-12.7-191,34.5c-14.4,14.3-27.2,30.2-38.1,47.3c-65.3,101.1-65.8,230.9-1.3,332.5
					c43.9,69,113.4,117.7,193.2,135.5c14.3,3,28.8,5.2,43.3,6.6h0.4c20.1,0.7,40.1,0.1,60.2-1.6C206.8,537,317.1,426.7,334.8,286.6
					c2.3-25,2.3-50.1,0-75.1c-2.2-16.1-5.5-32.1-9.8-47.8C287.5,33.4,168.9-56.8,33.2-58.2L33.2-58.2z M45-45.3
					c22.7,1.4,45.2,5.1,67.1,11.3c5.4,1.6,13.1,4.2,19.5,6.5c3,1.1,5.5,2.1,7.5,2.9c-0.6,1.5-1.2,3-2,5.2
					c-2.3,5.6-5.5,13.3-9.2,21.7c-3.1,7.2-6.3,14.4-9.5,21.6L117,27c-0.9-0.9-1.6-1.5-2.8-2.7c-6.3-6.2-12.6-12.4-18.8-18.7
					C78.9-10.8,62.5-27.4,46.3-44L45-45.3z M13-45.2l-11.2,11C-9.5-23.1-27.3-5.4-37.9,4.9c-13.6,13.4-19.7,19.4-23.2,22.6l-2.4-5.4
					C-70.1,6.9-76.6-8.3-83.1-23.6c2.2-1,5.5-2.4,9.5-3.9c9.5-3.4,19.2-6.4,29-8.9C-25.7-41.2-6.5-44.2,13-45.2L13-45.2z M29.1-43.3
					L69.1-2.9C79.3,7.4,89.5,17.8,99.7,28.2c3.5,3.6,6.1,6.3,8.3,8.6c-1.7,0.9-3.3,1.6-5.7,2.8c-7,3.5-16.8,8.2-27.5,13.3
					c-14.7,7-29.4,14-44.2,21l-3.1,1.5l-5.8-2.7C4.3,64.2-13.2,55.8-30.6,47.3c-7.2-3.5-14.5-7-21.8-10.3c0,0,0.1-0.1,0.1-0.1
					c2.7-2.8,6.4-6.5,10.5-10.5C-33.4,18.3-13.3-1.5,3-17.5L29.1-43.3L29.1-43.3z M151.2-19.5c0.3,0.1,0.5,0.1,0.7,0.2
					c3.2,1.3,8.6,4.1,16.9,8.5c21.9,11.9,42.2,26.4,60.7,43.1h-47.9h-52.9l0.2-0.4c7-16.3,14-32.5,21.1-48.7
					C150.4-18,150.8-18.7,151.2-19.5L151.2-19.5z M-94.8-18.7c0.1,0.2,0.2,0.3,0.3,0.5c1.1,2.7,6.9,16,13,29.9l7.9,18.2l0.9,2.1
					c-1.5,0-2.3,0.1-4.5,0.2c-8.8,0.2-23.5,0.2-47,0.2h-46.5C-157,19.7-141.9,8.2-126-1.7c9.8-5.9,19.9-11.4,30.2-16.5
					C-95.3-18.4-95.1-18.5-94.8-18.7L-94.8-18.7z M-179.9,44.8h54.8c16.4,0,31.3,0.1,42.1,0.1c4.7,0,8.2,0.1,11.1,0.1
					c-1,3.4-2.4,7.9-3.9,12.8C-79,68.1-82.4,79.3-83.5,83c-3.2,10.4-6.4,20.9-9.8,31.2c-1.3,4-2.4,7.3-3.2,9.7
					c-0.3,1-0.6,1.7-0.8,2.3c-1.3,0.6-2.6,1.1-3.9,1.6c-4.8,1.8-14,5-31.2,11c-13.2,4.6-30.6,10.7-38.6,13.6
					c-3.3,1.2-6.2,2.2-8.7,3.1c0-3-0.1-6.5-0.1-11.2c-0.1-11-0.1-26.3-0.1-43.1L-179.9,44.8L-179.9,44.8z M181.3,44.8h55.2v20.6
					c0,14.1,0.3,41.2,0.6,60.3c0.2,10.4,0.2,19,0.2,25c0,1.3,0,2-0.1,3.1c-2.5-0.8-5.4-1.8-9.2-3c-8.7-2.9-20.1-6.8-31.4-10.6
					c-10.4-3.6-20.8-7.2-31.2-10.8c-4.3-1.5-7.8-2.8-10.3-3.7c-0.9-0.3-1.5-0.6-2.1-0.8c-0.1-0.2-0.1-0.3-0.2-0.6
					c-0.5-1.5-1.3-3.7-2.2-6.3c-1.8-5.3-4.1-12.5-6.6-20.2c-5.9-18.7-10.4-33.3-13.5-43.3c-1.3-4.1-2.1-6.9-2.9-9.5
					c2.9,0,6.5-0.1,11.2-0.1C149.7,44.9,164.8,44.8,181.3,44.8L181.3,44.8z M-59.3,47.6c2,0.9,4.2,1.9,6.8,3.2
					c25.2,12,43.4,20.7,55.3,26.5c4.2,2,6.6,3.2,9.3,4.5l-50.8,20.8c-14.1,5.8-27,11-36.4,14.8c-2.8,1.1-4.6,1.8-6.7,2.7l0.8-2.5
					c2.2-6.8,5.1-16.2,8.3-26.4c6.9-22.3,10.7-34.4,12.7-40.9C-59.7,48.8-59.6,48.5-59.3,47.6L-59.3,47.6z M115.1,47.6l2.2,6.8
					c2.3,7.2,5.3,16.8,8.4,26.6c5.5,17.4,10.1,32.3,12.1,38.6l-46.2-18.5c-16.2-6.5-32.3-12.9-48.5-19.4c4.8-2.3,12.4-5.9,21.8-10.4
					c13.5-6.5,27.1-12.9,40.6-19.3C108.7,50.6,111.9,49.1,115.1,47.6L115.1,47.6z M249,52.6c12.7,14.2,24,29.5,33.9,45.7
					c2.8,4.7,6.9,12.3,10.5,19.3c3.3,6.4,5.9,12,6.9,14.5c0,0,0,0-0.1,0c-1.5,0.6-3.6,1.4-6,2.4c-4.9,2-11.3,4.7-18.1,7.6
					c-8.8,3.7-17.5,7.4-26.3,11v-18.8c0-14.4-0.2-41.6-0.5-60.5L249,52.6L249,52.6z M-192.3,54.5v42.3l0,0v4.9
					c0,17.6,0,35.2-0.1,52.9l-0.5-0.2c-4.5-2-10.6-4.8-17.4-7.9c-10.1-4.6-20.2-9.2-30.3-13.7l-1.3-0.5
					c5.2-11.5,10.9-22.8,17.3-33.7C-215.2,82.9-204.3,68.2-192.3,54.5L-192.3,54.5z M27.2,89.2l0.4,0.1l3.6,1.4
					c3.1,1.2,7.6,2.9,13,5.1c10.9,4.3,25.7,10.2,41.9,16.6l56.8,22.8l21.3,52.4c12.2,29.9,22.9,56.3,23.7,58.3l0.8,2l-2.6,6
					c-1.8,4.4-12.9,30.4-24.6,57.9l-20.5,48.2L96,378.9c-19.7,8.2-39.4,16.4-59.2,24.6l-10.4,4.3l-27.7-11.3
					c-37.6-15.3-59.6-24.3-72.3-29.6c-6.4-2.6-10.4-4.3-12.8-5.4c-1-0.4-1.6-0.7-2-0.9c-1-2-1.9-4.1-2.8-6.1
					c-2-4.5-4.6-10.6-7.3-17.1c-5.5-13.2-16.2-38.7-23.8-56.7c-3.3-7.7-6.5-15.5-9.7-23.3c-1-2.4-2-4.8-2.9-7.2l-0.4-1.1l1.3-3.1
					c1.3-3.1,3.1-7.4,5.3-12.7c4.5-10.6,10.7-25.2,17.5-41.1l24.1-56.1l7.2-2.9c22.9-9.3,80.4-32.9,88.4-36.1
					c8.7-3.6,13.8-5.7,16.6-6.7C27.6,89.2,27.8,89.3,27.2,89.2L27.2,89.2z M159.1,141.1l4.6,1.5c8.4,2.7,19.6,6.4,30.7,10.1
					c11.2,3.7,22.4,7.4,30.8,10.3c3.7,1.2,6.5,2.2,8.9,3.1l-0.5,1c-8.7,15.9-17.6,31.8-26.5,47.7c-3.2,5.6-6.3,11.2-9.4,16.8
					c-0.4,0.8-0.7,1.3-1.1,2l-0.2-0.3c-2.3-5.5-5.5-13.2-8.9-21.6l-22.4-55.1C162.8,150.5,160.7,145.4,159.1,141.1L159.1,141.1z
					 M-103.6,142.1c-0.5,1.2-0.6,1.5-1.2,3.1c-4.2,10.1-11.8,27.8-25.1,58.6c-4.6,10.7-8.8,20.4-11.9,27.5l-1.1,2.6
					c-0.4-0.7-0.5-1-1-1.8c-6.1-11.7-12.2-23.4-18.1-35.1c-4.2-8.3-8.5-16.5-12.8-24.8c-0.9-1.7-1.5-3-2.2-4.3
					c2.4-0.9,5.3-1.9,9.1-3.3c8.3-3,19.2-6.8,30.2-10.6s21.9-7.6,30.1-10.4C-106,143-105,142.7-103.6,142.1L-103.6,142.1z
					 M305.1,143.6c0.8,2.5,2,6,3.9,11.7c8.6,25.1,13.6,51.3,14.9,77.8l-3.8-3.7c-9.8-9.6-19.5-19.2-29.3-28.9l-36.2-35.8
					c2.9-1.2,7-3,11.6-4.9c5.8-2.4,17.5-7.4,26.1-11c4.3-1.8,8.3-3.5,11.2-4.6L305.1,143.6z M-246.6,144c1.5,0.6,3,1.3,5.1,2.2
					c5.5,2.4,12.9,5.7,20.3,9s14.7,6.6,20.3,9.2l3.6,1.7c-1.3,1.3-2.2,2.3-4.5,4.6c-14.5,14.4-29,28.7-43.5,42.9
					c-6.7,6.6-13.5,13.2-20.3,19.7c1.1-18,3.6-35.9,7.7-53.5c1.3-5.6,4.5-15.9,7.4-24.6c1.4-4.3,2.8-8.3,3.9-11.1L-246.6,144
					L-246.6,144z M245,173.2c2.1,2.1,4.8,4.7,8.3,8.1c7.7,7.5,18.3,17.9,29.9,29.4l38.6,38.1l-38.5,37.8
					c-9.9,9.7-19.9,19.4-29.9,29.1c-3.5,3.3-6.1,5.9-8.3,7.9c-1.2-2-2.5-4.3-4.2-7.4c-5.3-9.3-10.5-18.6-15.7-27.9
					c-5.3-9.4-10.5-18.8-15.7-28.3c-2.1-3.9-3.9-7.2-5.2-9.6c-0.5-0.9-0.9-1.6-1.2-2.2v-0.1c0.5-1.2,1.6-3.3,3.1-6.2
					c3.1-5.8,8.2-15,16.2-29.1c4.9-8.6,12.6-22.3,17.1-30.3C241.7,178.9,243.6,175.7,245,173.2L245,173.2z M-187.8,175l0.4,0.8
					c2,3.7,4.7,8.9,7.6,14.5c5.8,11.4,15.3,29.8,21,40.8l9.2,17.8l-19.5,38.5c-5.7,11.2-10.9,21.4-14.7,28.7
					c-1.4,2.7-2.4,4.6-3.4,6.5l-2.6-2.4c-6-5.7-11.9-11.4-17.8-17.1c-16.6-16-33.1-32-49.5-48.1l-6.3-6.1l12.4-12.2
					c26.3-25.8,43-42.3,53.3-52.3C-193,179.8-190.1,177-187.8,175L-187.8,175z M196.4,262.6l3.1,5.5c5.2,9.2,10.3,18.4,15.4,27.7
					c5.1,9.2,10.2,18.3,15.2,27.5c1.7,3.1,2.9,5.4,4,7.4c-22.4,7.3-44.8,14.6-67.2,21.9l0,0l-0.8,0.3c-3.7,1.2-6.7,2.2-9.6,3.1
					l2.4-5.7l12.1-28.4c9.2-21.6,19.6-46.2,25-58.7C196.2,263,196.3,262.9,196.4,262.6L196.4,262.6z M-265.6,264.2
					c2.2,2.2,4.5,4.4,8.1,7.9c20.5,20,42.1,40.9,54.7,53.2c2.7,2.6,5,4.9,6.9,6.9c-2,1.1-3.9,2.2-8.3,4.5
					c-9.8,5.2-12.1,6.5-31.2,16.9c-3.7,2-7.1,3.9-9.6,5.2c-0.8-1.9-1.5-3.7-2.2-5.6c-2.6-7.1-5-14.3-7.2-21.6
					C-260.5,309.5-264.3,286.9-265.6,264.2L-265.6,264.2z M-142.9,264.3c1.4,3.3,2.8,6.6,4.8,11.2c5.1,12,11.7,27.7,17.9,42.5
					c2.4,5.8,7.7,18.3,11.7,27.8c1.5,3.6,2.7,6.4,3.8,9.3c-4.7-1.7-23.6-8.3-42.2-14.9c-8-2.8-16-5.6-24.1-8.5
					c-2.2-0.8-3.6-1.3-5.1-1.8c0.9-1.9,2-4,3.4-6.9c3.6-7.2,8.6-17.2,14.2-28.2c4.7-9.4,9.5-18.7,14.3-28
					C-143.7,265.7-143.4,265.2-142.9,264.3L-142.9,264.3z M323.9,264.6c-1.6,29.8-7.6,59.2-18,87.1c-0.9,2.5-1.8,4.7-2.6,6.4
					c-1.1-0.5-2.2-1.1-3.4-1.7c-9.7-5.1-19.3-10.1-29.1-15.1c-5.2-2.7-10.3-5.3-15.5-8.1c-0.4-0.2-0.6-0.3-0.9-0.5l0.7-0.7
					c3.1-3.1,7.4-7.4,12.1-12C299,288.8,318,270.3,323.9,264.6L323.9,264.6z M-178.7,342.6l7,2.4c8,2.8,18.7,6.4,29.4,10.2
					c10.8,3.8,21.6,7.6,29.9,10.5c4.4,1.6,8.9,3.2,13.3,4.8c0.1,0.1,0.3,0.1,0.4,0.1c0.8,1.8,1.6,3.7,2.2,5.6
					c2.1,6.1,5.7,17.1,11.8,36.8c4,12.9,8,25.8,12,38.6c-2.9,0.1-6.3,0.1-11,0.2c-10.7,0.1-25.5,0.2-41.8,0.2h-54.3l0.5-55.5
					C-179.2,378.6-179,360.6-178.7,342.6L-178.7,342.6z M237.1,343.4c0.1,3,0.1,6.7,0.2,11.6c0.1,11.1,0.3,26.3,0.5,43l0.6,55.9
					h-56.5c-16.9,0-32.3-0.1-43.4-0.2c-5,0-8.7-0.1-11.8-0.2l0.1-0.5c1.1-3.8,2.6-9,4.3-14.6c3.3-11.3,9.3-31.5,13.2-45l6.4-22
					l45-14.6c13.1-4.2,24.9-8.1,33.6-10.8C232.6,344.8,234.9,344.1,237.1,343.4L237.1,343.4z M-191.4,344.1l-0.5,51.6
					c-0.2,16-0.3,32-0.6,48c-3.2-3.7-6.4-7.4-9.5-11.2c-8-10.2-15.4-20.9-22.1-32c-2.6-4.3-6.9-12.4-10.6-19.6
					c-1.6-3.1-3.2-6.2-4.7-9.4c-0.2-0.4-0.3-0.6-0.5-1c1.1-0.7,2-1.3,4.5-2.6c6.8-3.8,19.6-10.7,42.7-23.2L-191.4,344.1
					L-191.4,344.1z M249.6,344.5l2.6,1.4c5.5,2.9,19,9.9,30,15.6c5.5,2.8,10.5,5.4,14.2,7.3l2.1,1.1c-0.6,1.3-1.2,2.6-2.1,4.4
					c-2.4,4.9-5.5,11-8.1,15.9c-8.2,14.5-17.3,28.3-27.4,41.5c-3.3,4.1-6.7,8.2-10.3,12.2v-13.1c-0.1-20.1-0.3-40.1-0.6-60.2
					L249.6,344.5L249.6,344.5z M136.2,376c-4.3,14.6-16.7,56.9-19.6,66.7c-1,3.3-1.8,6-2.5,8.3c-2.4-1.2-5.4-2.6-9.1-4.5
					c-9.9-4.9-19.8-9.8-29.6-14.7c-9.8-4.9-19.6-9.8-29.3-14.7l-4-2.1l3.2-1.4c7.6-3.2,18.1-7.6,29.5-12.3c8.4-3.5,16.9-7,25.3-10.5
					l28.1-11.7C131.9,377.6,133.7,377,136.2,376L136.2,376z M-82.7,377.1c5.3,2,12.2,4.7,19.9,7.8c16,6.4,34.5,13.9,44.3,18.2
					c2.4,1,11.9,4.9,21.5,8.8c3.1,1.3,5.6,2.3,8.1,3.3c-4.9,2.3-13.9,6.6-21.5,10.3c-7.8,3.8-15.7,7.6-23.5,11.3l-19.9,9.5
					c-2.4,1.2-4.5,2.1-6.3,3l-2.3-7.3c-2.4-7.8-5.8-18.5-9.5-30.3s-7-22.7-9.5-30.6L-82.7,377.1L-82.7,377.1z M26.7,422.2
					c4.3,2,8.6,4,12.9,6.1c8.3,4,19.3,9.4,30.1,14.8s21.6,10.8,29.7,14.8c3.3,1.6,5.6,2.9,7.8,4c-1,1.1-1.9,2-3.3,3.5
					c-4.7,4.9-11.2,11.6-18.3,18.8L42.7,528l-13.6,13.8l-41.6-41.2c-10.6-10.5-21.3-21.1-31.8-31.7c-3.7-3.7-6.5-6.5-8.7-8.8
					l2.2-1.1c4.9-2.4,11.7-5.8,19.2-9.4l43.3-20.8c4.3-2.1,8.5-4,11.6-5.3C24.7,423,25.9,422.5,26.7,422.2L26.7,422.2z
					 M-125.2,464.5c23.5,0,38.2,0,47,0.2c2.3,0,3.1,0.1,4.6,0.2c-5,12.1-20.5,49.5-21.5,52c-1.6-0.7-3.2-1.5-4.7-2.2
					c-26.5-13-50.9-29.9-72.4-50.1L-125.2,464.5L-125.2,464.5z M127.8,466.2h100.9c-21.4,19.7-45.7,36.3-71.8,49.1h-0.1
					c-2,1-3.7,1.7-5.2,2.4l-1.6-3.3c-2.2-4.5-5-10.7-8.1-17.3C136.4,485.5,131.2,473.8,127.8,466.2L127.8,466.2z M-62,470
					c2.2,2.1,4.9,4.6,8.4,8c10.6,10.2,21.1,20.5,31.5,30.8l8.3,8.3l27,26.7c-3.3-0.2-5-0.2-14.5-1.1c-19.3-2-38.4-5.9-57-11.6
					c-5.8-1.9-11.6-3.9-17.3-6c-2.9-1.1-5.5-2.1-7.5-2.8c0.6-1.5,1.2-3.2,2-5.4c2.2-5.8,5.3-13.5,8.4-21.2s6.3-15.5,8.8-21.4
					C-63.1,472.5-62.7,471.4-62,470L-62,470z M116.3,471.2c1.5,3.5,6.6,14.7,11.8,26.2c5.3,11.6,10.4,23,11.6,25.6l-5.8,2.2
					c-26.9,10.2-55.1,16.5-83.8,18.5c-2.4,0.2-3.1,0.2-5.3,0.3c13.6-14.1,27.3-28.1,41-42c9.1-9.3,17.9-18.1,24.4-24.7
					C112.8,474.8,114.6,472.9,116.3,471.2L116.3,471.2z"/>
			</g>
		</g>
	</g>
</g>
</svg>
