<?xml version="1.0" encoding="utf-8"?>
<!-- Generator: Adobe Illustrator 26.3.1, SVG Export Plug-In . SVG Version: 6.00 Build 0)  -->
<svg version="1.1" id="Layer_1" xmlns="http://www.w3.org/2000/svg" xmlns:xlink="http://www.w3.org/1999/xlink" x="0px" y="0px"
	 viewBox="0 0 500 500" style="enable-background:new 0 0 500 500;" xml:space="preserve">
<style type="text/css">
	.st0{fill:#CCCCCC;}
</style>
<path id="_2b67128d231f510755ceee3bb89f8ece" class="st0" d="M248.2,10.1c-40.8,0.2-80.9,10.9-116.4,31.1C72.4,75,30,132.3,15.3,199
	c-3.9,16.7-5.7,33.9-5.2,51c-0.5,16.4,1,32.8,4.5,48.8c17.6,84.3,78.9,152.8,160.7,179.5c16.2,5.1,32.8,8.6,49.7,10.5v0.2l3.5,0.3
	c14.7,1,29.4,0.9,44-0.2c106.2-10,193.1-88.7,213.5-193.3c5.6-32,5.1-64.8-1.3-96.7C470.4,133.2,429,76.4,370.7,42.5
	C333.6,20.8,291.2,9.6,248.2,10.1L248.2,10.1z M255.8,19.8c19.7,0.8,39.2,3.8,58.2,9c6.8,2.1,13.6,4.4,20.2,6.9l0.4,0.1
	c-0.1,0.3-0.1,0.4-0.2,0.8c-1.1,2.9-3.1,7.8-6.4,15.6c-16.4,38.6-32.8,77.2-49.1,115.9c-2-12.6-4-25.2-5.9-37.8
	c-5.5-35.8-11-71.6-16.6-107.4L255.8,19.8z M244.4,19.9l-4.3,27.8c-11.1,71.6-17.2,110.8-18.5,120c-2.9-6.6-7-16.2-15.3-35.8
	c-3.6-8.6-12.4-29.1-19.4-45.6C177,63.1,168,41.8,165.6,35.9c0.3-0.1,0.4-0.2,0.8-0.4c3.5-1.4,7.1-2.7,10.7-3.8
	c9.4-3,18.9-5.5,28.5-7.6c5.9-1.2,15.2-2.4,23.5-3.3c3.8-0.4,7.5-0.7,11.3-0.9C242.5,19.8,243.3,19.8,244.4,19.9L244.4,19.9z
	 M344,39.9c0.7,0.3,0.8,0.3,1.7,0.8c2,1,4.6,2.2,7.2,3.6c5.3,2.7,11.1,5.7,13.4,7.1c16,9.5,30.7,20.8,44.1,33.8l0.1,0.1l-7,5
	c-25.8,18.3-51.6,36.7-77.4,55.1c-6.4,4.5-19.1,13.6-28.2,20.1c-5,3.5-6.8,4.9-10.4,7.4c2.2-5.1,5.2-12.1,8.2-19.1
	c15.4-36.4,30.8-72.8,46.2-109.1C343,41.7,343.5,40.8,344,39.9L344,39.9z M156.1,40c0.2,0.4,0.5,0.8,0.7,1.2
	c1.6,3.3,4.4,9.7,9.2,21.1c3.5,8.2,6.9,16.3,10.4,24.4c0.6,1.5,0.9,2.1,1.2,2.7c-0.1-0.2,1.3,2.9,3,6.9l6.4,15.1
	c4.8,11.4,13.8,32.5,19.9,46.8c2.4,5.6,4.3,10.3,6.1,14.6l-12.3-8.8c-4.1-3-12.5-9-18.7-13.5c-5.7-4.1-11.3-8.2-17.1-12.3
	c-6.8-4.9-13.6-9.7-20.4-14.7c-12.1-8.7-24.1-17.4-36.2-26.1L90.3,84.5c12.8-12.3,26.8-23.1,42-32.3c3.3-2,9.5-5.3,15.1-8.1
	c2.5-1.2,4.9-2.4,7.4-3.6C155.3,40.3,155.6,40.2,156.1,40L156.1,40z M250.1,47.1c3.6,23.2,16.4,106.2,19.6,126.7l1.8,11.5l-9,21.1
	c-5.2,12.2-10.6,25-12.1,28.6l-0.1,0.3c-0.6-1.3-1-2.1-1.7-3.8c-2.4-5.7-7.9-18.7-12.2-28.8c-1.9-4.4-3.7-8.9-5.5-13.4
	c-0.5-1.4-1.1-2.9-1.6-4.3c-0.1-0.3-0.2-0.7-0.3-1c0.3-2.3,0.7-4.7,1-7c0.6-4.3,1.5-10,2.4-16.1C236.2,136.9,244.7,81.9,250.1,47.1
	L250.1,47.1z M82.2,92.6l8.6,11.5c7.4,9.9,14.8,19.9,22.2,29.8c12.7,17.1,31.2,42,50.4,67.8c3.1,4.1,5.8,7.8,8.2,11.1
	c-8.2-3.4-20.6-8.7-35.1-14.6c-13.3-5.5-26.5-11-39.8-16.5c-15.2-6.3-30.4-12.6-45.6-18.9c-4.2-1.7-8.1-3.3-10.9-4.5l-1.2-0.5
	c0.4-1,0.8-1.9,1.4-3.1c1.7-3.7,3.9-8.3,5.7-11.7c9.3-17.5,20.8-33.8,34.2-48.4L82.2,92.6L82.2,92.6z M418.7,93.3l2.3,2.6
	c15.7,17.4,28.7,37.1,38.6,58.3c0.6,1.4,1.1,2.4,1.6,3.5l-4.6,1.9l-20.5,8.5c-16.7,6.9-38.3,15.8-58.1,24c-9.7,4-26.7,11-37.8,15.6
	l-9.3,3.8c2.8-3.8,4.3-5.8,8.4-11.3l22.8-30.6c5.3-7.1,17.9-24.1,28-37.8c10.1-13.7,21.3-28.8,24.9-33.5L418.7,93.3L418.7,93.3z
	 M105.7,107.6c29.3,21,58.5,42,87.7,63.1c2,1.5,8.5,6.2,14.7,10.6c3.1,2.2,6,4.3,8.2,6c1.1,0.8,2,1.5,2.7,2l0.7,0.5
	c0.2,0.4,0.4,0.9,0.8,1.6c0.7,1.4,1.6,3.5,2.7,6c2.2,4.9,5.1,11.4,8,18.1c2.9,6.6,5.8,13.3,8,18.6c1.1,2.6,2.1,4.9,2.8,6.6
	c0.3,0.8,0.3,0.8,0.5,1.4l-1.1-0.4c-2.2-0.9-5.1-2.1-8.3-3.4l-28.1-11.7c-5.8-2.1-11.3-4.7-16.7-7.8c-0.5-0.7-9.5-12.7-19.3-25.8
	C148.1,164.6,126.9,136.1,105.7,107.6L105.7,107.6z M395.8,107.6c-12.2,16.5-24.5,33.1-36.8,49.6c-12.8,17.2-25.6,34.4-38.3,51.6
	l-7.5,10l-11,4.5c-6.6,2.7-19.3,7.9-28.2,11.6c-4.4,1.8-8.6,3.6-11.8,4.8c-1.4,0.6-2.6,1-3.5,1.4c1.3-3.4,4.4-10.8,11.5-27.5l7-16.6
	l2.2-5.2l0.6-1.4c0.3-0.3,0.8-0.6,1.4-1.1c1.4-1,3.4-2.5,5.8-4.3c4.9-3.6,11.7-8.5,19.1-13.8c14.9-10.6,34.3-24.5,43.3-30.9
	c9-6.4,22.6-16.1,30.3-21.5c5.1-3.7,10.5-7.5,15.7-11.2L395.8,107.6z M35.3,167l0.9,0.4c1.8,0.7,4.4,1.8,7.5,3
	c6.2,2.5,14.5,5.9,23.4,9.7c31.3,13,49.7,20.7,86.6,35.9l12.9,5.3c-5.5,0.9-12.2,2-19.8,3.2c-16.8,2.7-52.8,8.4-80,12.7
	c-15.4,2.4-30.8,4.9-46.2,7.4l-1,0.2c0-2,0.1-4.9,0.6-10.6c1.5-21.5,6.1-42.6,13.5-62.8C34.6,168.7,34.9,167.9,35.3,167L35.3,167z
	 M464.8,167c0.4,0.9,0.7,1.6,1.6,4.2c8.3,22.4,13,45.9,13.9,69.7c0.1,1.5,0.1,2.6,0.2,3.8c-9.1-1.5-18.3-3-27.5-4.5
	c-9.5-1.5-29.8-4.8-44.9-7.2c-24.9-4-49.7-8-74.6-11.9c22.5-9.3,41-17,85.9-35.5c12.7-5.2,24.4-10.1,33.1-13.6
	c4.3-1.8,7.9-3.2,10.4-4.2L464.8,167L464.8,167z M316.2,228.2l34.8,5.6l50.5,8.2c8.1,1.3,28.3,4.5,44.9,7.2l8.5,1.4
	c-3.3,0.5-5.6,1-9.3,1.6l-79.6,13c-14.9,2.4-29.8,4.9-44.6,7.3c-2.3,0.4-3.2,0.5-3.9,0.7c-0.2-0.1-0.4-0.1-0.7-0.2
	c-0.9-0.3-2.3-0.8-4.2-1.5c-5.7-2.3-11.3-4.7-16.9-7.2c-12-5.3-25.1-11.1-29.3-12.9c-1.3-0.6-1.6-0.8-2.6-1.2
	c0.4-0.3,0.9-0.5,1.3-0.7c3.1-1.4,7.7-3.3,13.8-5.8c11-4.6,24.2-10,29.1-12.1L316.2,228.2L316.2,228.2z M182.9,228.8
	c0.3,0.1,0.7,0.2,1.3,0.4c1.2,0.4,2.8,1,4.8,1.8c4,1.5,9.2,3.6,14.7,5.9c11.1,4.6,24.3,10.1,29.3,12.1c0.7,0.3,1.6,0.6,2.5,1
	c-0.4,0.2-0.4,0.2-0.9,0.4c-5.9,2.7-16.6,7.3-36,15.7c-5.1,2.2-10.1,4.3-15.2,6.5l-0.3,0.1l0,0l-2.9-0.5l-10.4-1.7
	c-37.8-6.1-75.7-12.2-113.5-18.3l-10.6-1.7l6.2-1l34-5.4c13.1-2.1,40.1-6.4,59.9-9.6c9.9-1.6,19.1-3,26-4.1c3.4-0.5,6.3-0.9,8.3-1.2
	l2.4-0.3L182.9,228.8L182.9,228.8z M19.5,256.2l32.9,5.3l54.5,8.7c26.4,4.2,44.3,7.1,55.6,9c2.1,0.3,2.8,0.5,4.5,0.7l-36.2,15.6
	c-27.7,12-42.4,18.3-81.2,35.1l-0.7,0.3c-4.4,1.9-8.3,3.6-11.3,4.8l-1.5,0.6c-0.8-2.1-1.6-4.2-2.4-6.3c-5.6-15.3-9.6-31.1-11.9-47.2
	c-0.6-4.1-1.3-10.7-1.7-16.6c-0.2-2.6-0.4-5.3-0.5-8C19.5,257.2,19.6,256.9,19.5,256.2L19.5,256.2z M480.6,256.2
	c0,1.2,0,1.6-0.1,4.1c-1.1,24.6-6.2,48.9-14.9,72c-0.7,2-1.4,3.7-2,5.1c-1.8-0.7-4.3-1.7-8.8-3.7c-10-4.3-28-12.2-59.9-26.2
	c-12.9-5.7-25.9-11.4-38.8-17c-14.1-6.1-18-8-22.7-10.1c6.2-1,19.6-3.2,39.8-6.5c23.6-3.9,57.9-9.5,76.2-12.5
	C459.8,259.6,470.2,257.9,480.6,256.2L480.6,256.2z M243,257.6l-11.1,26l-12,28l-13.9,9.8c-26.6,18.8-53.1,37.6-79.7,56.4
	c-9.4,6.6-15.2,10.8-21.8,15.4c3.3-4.3,6-8.1,9.9-13.3c13.4-17.9,31.2-41.8,39.6-53c8.4-11.2,16.6-22.3,24.9-33.4l9.1-12.1l11.9-5.1
	l29.3-12.7L243,257.6z M259.3,259.2c3.8,1.5,10.8,4.5,25,10.7l28.7,12.5l2.1,2.8c2.7,3.6,8.2,11,23.8,32.1
	c9,12.2,18.7,25.2,34.3,46.3c5.8,7.9,13.4,18.1,16.9,22.8c1.4,1.9,3.3,4.4,5.1,6.9l-16-11.3l-29.6-21c-24-17-49.7-35.3-58.4-41.4
	c-2.9-2.1-5.9-4.2-8.9-6.2c-1.1-1.2-2-2.6-2.5-4.1c-12.2-29.5-17.9-43.1-20.2-49.4C259.3,259.3,259.4,259.6,259.3,259.2L259.3,259.2
	z M250.8,264.8c1.6,3.9,7.1,17.2,12.3,29.8l9.1,22l-5.9,36.6c-6.3,39.4-11.4,71-16.1,100.9c-1.9-12.6-6.9-44.3-11.9-76.6l-9.6-61.2
	l12.2-28.8c3.5-8.2,6.7-15.6,9.1-21C250.3,265.8,250.5,265.5,250.8,264.8L250.8,264.8z M169.6,289.4c-3.1,4.3-6.5,9-11.3,15.5
	c-11.1,14.8-33.5,44.8-49.9,66.7l-26.9,36l-1.6-1.8C68.6,393,58.6,379.4,50,364.8c-3.5-6.3-6.7-12.6-9.7-19.1
	c1.9-0.9,4.9-2.3,9.7-4.4c9.9-4.4,26.9-11.7,55.3-24c17.6-7.6,41.6-18,53.4-23.1L169.6,289.4L169.6,289.4z M331.2,290.4
	c1.1,0.5,1.9,0.8,3.2,1.4c8.6,3.8,18.6,8.2,22.4,9.8c3.8,1.7,16.3,7.1,27.9,12.2c11.6,5.1,32.6,14.3,46.6,20.4
	c13.9,6,26.4,11.5,28.3,12.4l-2.6,5.2c-9.2,18.7-20.8,36-34.7,51.5c-1.6,1.8-2.9,3.3-4.1,4.5c-1.2-1.5-2.6-3.4-4.2-5.6
	c-3.6-5-13.1-17.8-21.1-28.5c-9.8-13.2-19.6-26.5-29.5-39.7c-8.2-11.1-20.7-27.9-27.7-37.3C333.9,294.2,332.7,292.5,331.2,290.4
	L331.2,290.4z M212.4,329c-2.6,6.1-5.2,12.2-7.8,18.3c-7.1,16.6-15.8,37-19.3,45.2c-8.6,20.3-17.3,40.5-26,60.7
	c-1,2.4-2.1,4.8-3.3,7.1c-1.7,3.5,0,0,0,0.1l-0.5-0.2c-2.5-1.1-4.9-2.3-7.3-3.6c-5.5-2.8-11.8-6.1-14.9-8
	c-13.8-8.2-26.7-17.7-38.6-28.5c-1.6-1.5-3.3-3-4.9-4.5l1.6-1.2c14.3-10.1,28.5-20.2,42.8-30.2c28.7-20.2,55.6-39.2,74.5-52.6
	C210.2,330.6,211.2,329.9,212.4,329L212.4,329z M288.1,329.5c4.7,3.4,10.6,7.5,18.7,13.3c20.4,14.4,33.5,23.8,53.8,38.1
	c15.6,11,31.2,22.1,46.8,33.2l2.7,1.9c-0.4,0.4-0.6,0.6-1,1c-17.9,16.9-38.4,30.9-60.7,41.5c-2.2,1.1-4.3,2-5.9,2.7l0-0.1l-2.6-6.3
	l-8.4-20.2c-4.9-11.8-9.8-23.6-14.7-35.4c-1.3-3.2-9.4-22.7-17.3-41.8C293.9,343.7,291,336.6,288.1,329.5L288.1,329.5z M221.3,333.3
	l2.2,13.9c2.3,14.7,5.5,34.6,8.8,56.3c3.8,24.5,7.6,49,11.5,73.5l0.5,3.3h-0.2c-19.7-0.6-39.2-3.6-58.1-9c-5-1.5-9.9-3.1-14.8-4.8
	c-1.9-0.7-3.8-1.4-5.7-2.1c0.1-0.4,0.2-0.6,0.3-1c0.9-2.5,2.3-6,3.9-9.8l26.1-61.2C207.2,366.4,218.5,339.8,221.3,333.3
	C221.3,333.2,221.3,333.3,221.3,333.3L221.3,333.3z M279.3,334.1c1.1,2.7,1.6,3.6,3.4,8c4.7,11.4,14.8,35.9,22.5,54.4
	c6.2,15.1,12.5,30.2,18.7,45.3c2.4,5.9,4.9,11.8,7.3,17.7c1,2.4,1.8,4.2,2.2,5.3l-1.9,0.7c-21,7.8-43,12.6-65.4,14.2
	c-4.3,0.3-8.5,0.6-10.3,0.6c0.1-0.8,0.1-1.3,0.7-4.4c0.6-3.3,2.2-13.6,3.7-23.1c1.5-9.6,4.3-26.8,6.2-38.4
	c1.9-11.6,5.9-36.4,8.9-55.1C277.3,346.3,278.3,340.6,279.3,334.1L279.3,334.1z"/>
</svg>
