<?xml version="1.0" encoding="utf-8"?>
<!-- Generator: Adobe Illustrator 26.3.1, SVG Export Plug-In . SVG Version: 6.00 Build 0)  -->
<svg version="1.1" id="Layer_1" xmlns="http://www.w3.org/2000/svg" xmlns:xlink="http://www.w3.org/1999/xlink" x="0px" y="0px"
	 viewBox="0 0 500 500" style="enable-background:new 0 0 500 500;" xml:space="preserve">
<style type="text/css">
	.st0{fill:none;}
	.st1{fill:#005FE9;}
</style>
<path id="Path_63" class="st0" d="M232.9,232.6h480v480h-480V232.6z"/>
<path id="_835b5d03580fcf4982cd140893d08cdb" class="st1" d="M228.2,184.5h87.3c12-0.3,21.6-10.4,21.2-22.4
	c-0.3-11.6-9.6-20.9-21.2-21.2h-43.6v-21.8c0.3-12-9.2-22.1-21.2-22.4c-12-0.3-22.1,9.2-22.4,21.2c0,0.4,0,0.8,0,1.2v21.8
	c-36.2,0-65.5,29.3-65.5,65.4c0,36.2,29.3,65.5,65.4,65.5c0,0,0,0,0,0h43.6c12-0.3,22.1,9.2,22.4,21.2c0.3,12-9.2,22.1-21.2,22.4
	c-0.4,0-0.8,0-1.2,0h-87.3c-12,0.3-21.6,10.4-21.2,22.4c0.3,11.6,9.6,20.9,21.2,21.2h43.6v21.8c0.3,12,10.4,21.6,22.4,21.2
	c11.6-0.3,20.9-9.6,21.2-21.2v-21.8c36.2,0,65.5-29.3,65.4-65.5c0-36.1-29.3-65.4-65.4-65.4h-43.6c-12,0.3-22.1-9.2-22.4-21.2
	s9.2-22.1,21.2-22.4C227.4,184.5,227.8,184.5,228.2,184.5z M250,10C117.5,10,10,117.5,10,250s107.5,240,240,240s240-107.5,240-240
	S382.5,10,250,10z M250,446.4c-108.5,0-196.4-87.9-196.4-196.4c0-108.5,87.9-196.4,196.4-196.4c108.5,0,196.4,87.9,196.4,196.4
	S358.5,446.4,250,446.4L250,446.4z"/>
</svg>
