<?xml version="1.0" encoding="utf-8"?>
<!-- Generator: Adobe Illustrator 26.3.1, SVG Export Plug-In . SVG Version: 6.00 Build 0)  -->
<svg version="1.1" id="Layer_1" xmlns="http://www.w3.org/2000/svg" xmlns:xlink="http://www.w3.org/1999/xlink" x="0px" y="0px"
	 viewBox="0 0 500 500" style="enable-background:new 0 0 500 500;" xml:space="preserve">
<style type="text/css">
	.st0{fill:none;}
	.st1{fill:#005FE9;}
</style>
<path id="Path_63" class="st0" d="M232.9,232.6h480v480h-480V232.6z"/>
<path id="_6aa4cd704786d4e70e3a59c751323c43" class="st1" d="M489.2,194.1c-3.1-9-11.2-15.3-20.6-16.1l-136.4-19.9L271.1,34.3
	c-5.8-11.9-20.1-16.9-32-11.1c-4.8,2.3-8.8,6.3-11.1,11.1l-61.1,123.6L30.5,178.1c-12.9,1.7-22,13.6-20.3,26.5
	c0.7,5.2,3.1,10.1,6.9,13.8l99,95.9l-24,136.1c-2.7,12.9,5.5,25.7,18.5,28.4c5.7,1.2,11.6,0.3,16.7-2.5l122.3-64l122.3,64
	c3.4,1.9,7.2,2.9,11,2.9c13.3,0,24.1-10.7,24.1-24c0-1.5-0.1-3-0.4-4.5l-24-136.1l99-95.9C488.6,212.6,491.6,203.1,489.2,194.1z
	 M341.8,290c-5.6,5.5-8.2,13.3-7,21.1l17.3,100.6l-90.2-47.9c-7.1-3.5-15.4-3.5-22.5,0l-90.2,47.9l17.3-100.6
	c1.3-7.7-1.3-15.6-7-21.1l-71.8-71.8l100.9-14.6c7.9-1.1,14.7-6,18.2-13.2L249.4,99l45.1,91.5c3.5,7.1,10.3,12.1,18.2,13.2
	l100.9,14.6L341.8,290z"/>
</svg>
