<?xml version="1.0" encoding="utf-8"?>
<!-- Generator: Adobe Illustrator 26.3.1, SVG Export Plug-In . SVG Version: 6.00 Build 0)  -->
<svg version="1.1" id="Layer_1" xmlns="http://www.w3.org/2000/svg" xmlns:xlink="http://www.w3.org/1999/xlink" x="0px" y="0px"
	 viewBox="0 0 500 500" style="enable-background:new 0 0 500 500;" xml:space="preserve">
<style type="text/css">
	.st0{fill:none;}
	.st1{fill:#005FE9;}
</style>
<path id="Path_63" class="st0" d="M232.9,232.6h480v480h-480V232.6z"/>
<path id="Path_64" class="st1" d="M249.8,10C117.3,10.1,9.9,117.6,10,250.2C10.1,382.7,117.6,490.1,250.2,490
	C382.7,489.9,490,382.5,490,250c0.1-132.5-107.2-239.9-239.6-240C250.2,10,250,10,249.8,10z M416.1,154h-70.8
	c-7.5-29.7-18.6-58.4-33.1-85.4C356,83.6,392.9,113.9,416.1,154z M250.1,59c20.2,29.1,35.6,61.1,45.8,95h-91.7
	C214.5,120.1,230,88,250.1,59z M64.4,297.9c-8.3-31.4-8.3-64.5,0-96h81.1c-2.1,15.9-3.2,32-3.4,48c0.1,16,1.3,32.1,3.4,48
	L64.4,297.9z M84,345.9h70.7c7.5,29.7,18.6,58.4,33.1,85.4C144.1,416.3,107.2,386,84,345.9z M154.8,154H84
	c23.2-40.1,60.1-70.4,103.9-85.4C173.4,95.6,162.3,124.2,154.8,154z M250.1,440.9c-20.2-29.1-35.6-61.1-45.8-95H296
	C285.8,379.8,270.3,411.9,250.1,440.9z M306.3,297.9H193.9c-2.4-15.9-3.7-31.9-3.8-48c0.2-16.1,1.5-32.1,3.8-48h112.3
	c2.4,15.9,3.7,32,3.8,48.1C309.9,266,308.6,282.1,306.3,297.9L306.3,297.9z M312.3,431.3c14.5-27,25.6-55.7,33.1-85.4h70.8
	C392.9,385.9,356,416.3,312.3,431.3L312.3,431.3z M354.7,297.9c2.1-15.9,3.2-31.9,3.4-48c-0.1-16-1.3-32.1-3.4-48h81.1
	c8.3,31.4,8.3,64.5,0,96L354.7,297.9z"/>
</svg>
