<?xml version="1.0" encoding="utf-8"?>
<!-- Generator: Adobe Illustrator 26.3.1, SVG Export Plug-In . SVG Version: 6.00 Build 0)  -->
<svg version="1.1" id="Layer_1" xmlns="http://www.w3.org/2000/svg" xmlns:xlink="http://www.w3.org/1999/xlink" x="0px" y="0px"
	 viewBox="0 0 500 500" style="enable-background:new 0 0 500 500;" xml:space="preserve">
<style type="text/css">
	.st0{fill:#005FE9;}
</style>
<path id="_55875de67f0001d7695d7cadee652fba" class="st0" d="M473.3,203.9c-13.7-16.4-33.9-25.9-55.2-25.9H308.6l13.4-34.3
	c19.1-51.3-7-108.4-58.4-127.5c-11.2-4.2-23.1-6.3-35-6.2c-9.4,0-18,5.6-21.8,14.2L138.4,178H82c-39.8,0-72,32.2-72,72v168
	c0,39.8,32.2,72,72,72h305.6c34.8,0,64.6-24.9,70.8-59.1l30.4-168C492.7,242,487,220.3,473.3,203.9z M130,442H82
	c-13.3,0-24-10.7-24-24l0,0V250c0-13.3,10.7-24,24-24h48V442z M442.1,254.3l-30.4,168c-2.1,11.5-12.3,19.9-24,19.7H178V207
	l65.3-146.9c26.9,7.8,42.3,35.9,34.5,62.8c-0.4,1.3-0.8,2.6-1.3,3.9l-12.8,34.3c-9.3,24.8,3.3,52.5,28.2,61.8c5.3,2,11,3,16.6,3
	h109.6c13.5,0.1,24.4,11.2,24.3,24.7C442.4,251.9,442.3,253.1,442.1,254.3z"/>
</svg>
